<svg width="120" height="24" viewBox="0 0 120 24" fill="none" xmlns="http://www.w3.org/2000/svg">
<rect width="23.996" height="23.996" rx="5.99901" fill="#0C8CE9"/>
<g clip-path="url(#clip0_4904_6952)">
<path d="M20.9931 18.0802C20.9931 20.4342 18.601 20.9965 15.6503 20.9965H6.65174C4.63279 20.9965 2.99609 19.6908 2.99609 18.0802L4.12091 14.9765C4.12091 14.6994 3.8103 14.9765 4.12091 14.9765C4.43152 14.9765 4.12091 14.6994 4.12091 14.9765V17.234C4.12091 18.7578 5.5058 19.9931 7.21415 19.9931H15.6503C17.9798 19.9931 19.8683 18.3086 19.8683 16.2307C19.8683 14.1527 17.9798 12.4682 15.6503 12.4682H6.93295C6.93295 12.7452 6.62233 12.4682 6.93295 12.4682C6.93295 12.1911 6.62233 12.4682 6.93295 12.4682L11.1886 11.4648H15.6503C18.601 11.4648 20.9931 15.7263 20.9931 18.0802Z" fill="white"/>
<path d="M2.99609 18.0806C2.99609 20.4346 5.38819 20.9969 8.33897 20.9969H17.3375C19.3565 20.9969 20.9931 19.6912 20.9931 18.0806L19.8683 14.9612C20.1789 14.9612 19.8683 14.6834 19.8683 14.9612C19.8683 14.6834 19.5577 14.9612 19.8683 14.9612V17.2246C19.8683 18.7524 18.4834 19.991 16.7751 19.991H8.33897C6.0094 19.991 4.12091 18.302 4.12091 16.2186C4.12091 14.1352 6.0094 12.4463 8.33897 12.4463H17.0563C17.3669 12.4463 17.0563 12.7241 17.0563 12.4463C17.3669 12.4463 17.0563 12.1685 17.0563 12.4463L14.9004 11.9433L12.7445 11.502H8.33897C5.38819 11.502 2.99609 15.7267 2.99609 18.0806Z" fill="white"/>
<path d="M2.99609 5.87609C2.99609 3.55455 5.38819 3 8.33897 3H17.3375C19.3565 3 20.9931 4.28767 20.9931 5.87609L19.8683 9.00147C20.1789 9.00147 19.8683 9.2777 19.8683 9.00147C19.8683 9.2777 19.5577 9.00147 19.8683 9.00147V6.75093C19.8683 5.23177 18.4834 4.00025 16.7751 4.00025H8.33897C6.0094 4.00025 4.12091 5.67959 4.12091 7.75117C4.12091 9.82275 6.0094 11.5021 8.33897 11.5021H17.0563C17.3669 11.5021 17.0563 11.2259 17.0563 11.5021C17.3669 11.5021 17.0563 11.7783 17.0563 11.5021L12.7445 12.3969L8.33897 12.4465C5.38819 12.4465 2.99609 8.19762 2.99609 5.87609Z" fill="white"/>
<path d="M20.9931 5.87609C20.9931 3.55455 18.601 3 15.6503 3H6.65174C4.63279 3 2.99609 4.28767 2.99609 5.87609L4.12091 8.97095C4.12091 9.24575 3.8103 8.97095 4.12091 8.97095C4.43152 8.97095 4.12091 9.24575 4.12091 8.97095V6.73185C4.12091 5.22041 5.5058 3.99516 7.21415 3.99516H15.6503C17.9798 3.99516 19.8683 5.66596 19.8683 7.72701C19.8683 9.78805 17.9798 11.4588 15.6503 11.4588H6.93295C6.93295 11.184 6.62233 11.4588 6.93295 11.4588C6.93295 11.7337 6.62233 11.4588 6.93295 11.4588L11.253 12.454H15.6503C18.601 12.454 20.9931 8.19762 20.9931 5.87609Z" fill="white"/>
</g>
<path d="M30.5445 20.9937C30.3195 20.9937 30.207 20.8812 30.207 20.6563V8.14438C30.207 8.0274 30.252 7.89243 30.342 7.73946L33.5408 3.20441C33.6398 3.06944 33.7838 3.00195 33.9727 3.00195H38.4403C38.6383 3.00195 38.7822 3.06944 38.8722 3.20441L42.0845 7.73946C42.1745 7.86544 42.2195 8.00041 42.2195 8.14438V20.6563C42.2195 20.8812 42.107 20.9937 41.8821 20.9937H38.0624C37.8374 20.9937 37.725 20.8812 37.725 20.6563V15.5198C37.725 15.1885 37.4564 14.92 37.1251 14.92H35.315C34.9837 14.92 34.7151 15.1885 34.7151 15.5198V20.6563C34.7151 20.8812 34.6026 20.9937 34.3777 20.9937H30.5445ZM36.2133 12.0181C37.0411 12.0181 37.599 11.8381 37.8869 11.4782C38.1839 11.1093 38.3323 10.4119 38.3323 9.38612C38.3323 8.36033 38.1839 7.66748 37.8869 7.30755C37.599 6.93863 37.0411 6.75417 36.2133 6.75417C35.3944 6.75417 34.8366 6.93863 34.5396 7.30755C34.2517 7.66748 34.1077 8.36033 34.1077 9.38612C34.1077 10.4119 34.2517 11.1093 34.5396 11.4782C34.8366 11.8381 35.3944 12.0181 36.2133 12.0181Z" fill="#5C5C5C"/>
<path d="M45.7178 20.9937C45.4929 20.9937 45.3804 20.8812 45.3804 20.6563V6.48422C45.3804 6.25927 45.4929 6.1468 45.7178 6.1468H52.9388C53.1458 6.1468 53.3257 6.22328 53.4787 6.37625L56.1781 9.07568C56.3311 9.21965 56.4076 9.39961 56.4076 9.61557V20.6563C56.4076 20.8812 56.2951 20.9937 56.0701 20.9937H52.4664C52.2414 20.9937 52.129 20.8812 52.129 20.6563V10.1555C52.129 9.73254 51.9175 9.52109 51.4946 9.52109H50.2589C49.9276 9.52109 49.659 9.78966 49.659 10.121V20.6563C49.659 20.8812 49.5465 20.9937 49.3216 20.9937H45.7178Z" fill="#5C5C5C"/>
<path d="M59.482 20.9937C59.257 20.9937 59.1445 20.8812 59.1445 20.6563V18.4697C59.1445 18.2628 59.212 18.1278 59.347 18.0648L61.8066 16.6059C61.9887 16.4979 62.1004 16.3018 62.1004 16.09V15.386C62.1004 15.1654 61.9794 14.9627 61.7853 14.858L59.347 13.5432C59.212 13.4623 59.1445 13.3228 59.1445 13.1248V8.81924C59.1445 8.72026 59.158 8.63927 59.185 8.57629C59.221 8.5133 59.2705 8.45931 59.3335 8.41432L62.2084 6.30876C62.3074 6.23678 62.3884 6.19179 62.4514 6.17379C62.5143 6.15579 62.5773 6.1468 62.6403 6.1468H65.9201C66.1451 6.1468 66.2576 6.25927 66.2576 6.48422V8.60328C66.2576 8.75625 66.2441 8.85973 66.2171 8.91372C66.1991 8.9677 66.1541 9.0127 66.0821 9.04869L63.8461 10.2554C63.6521 10.3601 63.5311 10.5628 63.5311 10.7833V11.6187C63.5311 11.8468 63.6605 12.0551 63.8649 12.1563L66.2576 13.3408C66.4105 13.4038 66.487 13.5387 66.487 13.7457V17.8893C66.487 18.1143 66.4105 18.2943 66.2576 18.4292L63.3827 20.8182C63.2387 20.9352 63.0587 20.9937 62.8428 20.9937H59.482Z" fill="#5C5C5C"/>
<path d="M72.6911 20.9937C72.4841 20.9937 72.3042 20.9172 72.1512 20.7642L69.4517 18.0648C69.2988 17.9208 69.2223 17.7409 69.2223 17.5249V6.48422C69.2223 6.25927 69.3348 6.1468 69.5597 6.1468H73.1635C73.3884 6.1468 73.5009 6.25927 73.5009 6.48422V17.0195C73.5009 17.3508 73.7695 17.6194 74.1008 17.6194H75.1551C75.4864 17.6194 75.7549 17.3508 75.7549 17.0195V6.48422C75.7549 6.25927 75.8674 6.1468 76.0924 6.1468H79.6826C79.9076 6.1468 80.02 6.25927 80.02 6.48422V17.0195C80.02 17.3508 80.2886 17.6194 80.6199 17.6194H81.6742C82.0055 17.6194 82.2741 17.3508 82.2741 17.0195V6.48422C82.2741 6.25927 82.3865 6.1468 82.6115 6.1468H86.2152C86.4402 6.1468 86.5527 6.25927 86.5527 6.48422V17.5249C86.5527 17.7409 86.4762 17.9208 86.3232 18.0648L83.6238 20.7642C83.4708 20.9172 83.2909 20.9937 83.0839 20.9937H80.0065C79.7906 20.9937 79.6106 20.9172 79.4667 20.7642L78.3227 19.6203C78.0901 19.3876 77.7134 19.3858 77.4785 19.6163L76.3083 20.7642C76.1643 20.9172 75.9844 20.9937 75.7684 20.9937H72.6911Z" fill="#5C5C5C"/>
<path d="M95.7411 20.9937C95.6511 20.9937 95.5521 20.9802 95.4441 20.9532C95.3452 20.9262 95.2507 20.9037 95.1607 20.8857L92.7582 20.2918L90.0048 19.374C89.7348 19.284 89.5999 19.0231 89.5999 18.5912V9.61557C89.5999 9.39961 89.6764 9.21965 89.8293 9.07568L92.5288 6.37625C92.6817 6.22328 92.8617 6.1468 93.0686 6.1468H97.3877C97.5947 6.1468 97.7747 6.22328 97.9276 6.37625L100.627 9.07568C100.78 9.21965 100.857 9.39961 100.857 9.61557V14.5495C100.857 14.8808 100.588 15.1494 100.257 15.1494H94.1777C93.8586 15.1494 93.5954 15.3991 93.5786 15.7178L93.5381 16.4874C93.5239 16.7573 93.692 17.0034 93.9487 17.0884L95.288 17.5317C95.3827 17.563 95.481 17.5825 95.5805 17.5895L98.8724 17.8219C99.0254 17.8488 99.1019 17.9523 99.1019 18.1323V20.6563C99.1019 20.8812 98.9894 20.9937 98.7644 20.9937H95.7411ZM95.2012 13.0304H95.4576C95.8985 13.0304 96.2495 12.8639 96.5104 12.531C96.7804 12.198 96.9153 11.7481 96.9153 11.1812V10.9113C96.9153 10.3534 96.7804 9.90801 96.5104 9.57508C96.2495 9.24215 95.8985 9.07568 95.4576 9.07568H95.1877C94.7558 9.07568 94.4094 9.24215 94.1484 9.57508C93.8965 9.90801 93.7705 10.3534 93.7705 10.9113V11.1812C93.7705 11.7481 93.8965 12.198 94.1484 12.531C94.4094 12.8639 94.7603 13.0304 95.2012 13.0304Z" fill="#5C5C5C"/>
<path d="M104.003 20.9937C103.779 20.9937 103.666 20.8812 103.666 20.6563V6.48422C103.666 6.25927 103.779 6.1468 104.003 6.1468H106.055C106.226 6.1468 106.374 6.22328 106.5 6.37625L107.384 7.39513C107.618 7.66522 108.035 7.67176 108.278 7.40914L109.294 6.30876C109.393 6.20078 109.519 6.1468 109.672 6.1468H111.13C111.355 6.1468 111.467 6.25927 111.467 6.48422V9.38612C111.467 9.53009 111.458 9.62907 111.44 9.68305C111.422 9.72804 111.373 9.77754 111.292 9.83152L108.188 12.1217C108.035 12.2348 107.945 12.4139 107.945 12.6044V20.6563C107.945 20.8812 107.832 20.9937 107.607 20.9937H104.003Z" fill="#5C5C5C"/>
<path d="M112.996 20.9937C112.771 20.9937 112.659 20.8812 112.659 20.6563V18.4697C112.659 18.2628 112.726 18.1278 112.861 18.0648L115.321 16.6059C115.503 16.4979 115.615 16.3018 115.615 16.09V15.386C115.615 15.1654 115.494 14.9627 115.299 14.858L112.861 13.5432C112.726 13.4623 112.659 13.3228 112.659 13.1248V8.81924C112.659 8.72026 112.672 8.63927 112.699 8.57629C112.735 8.5133 112.785 8.45931 112.848 8.41432L115.723 6.30876C115.822 6.23678 115.903 6.19179 115.966 6.17379C116.029 6.15579 116.092 6.1468 116.155 6.1468H119.434C119.659 6.1468 119.772 6.25927 119.772 6.48422V8.60328C119.772 8.75625 119.758 8.85973 119.731 8.91372C119.713 8.9677 119.668 9.0127 119.596 9.04869L117.36 10.2554C117.166 10.3601 117.045 10.5628 117.045 10.7833V11.6187C117.045 11.8468 117.175 12.0551 117.379 12.1563L119.772 13.3408C119.925 13.4038 120.001 13.5387 120.001 13.7457V17.8893C120.001 18.1143 119.925 18.2943 119.772 18.4292L116.897 20.8182C116.753 20.9352 116.573 20.9937 116.357 20.9937H112.996Z" fill="#5C5C5C"/>
<defs>
<clipPath id="clip0_4904_6952">
<rect width="17.997" height="17.997" fill="white" transform="translate(3 3)"/>
</clipPath>
</defs>
</svg>
