<svg preserveAspectRatio="none" width="100%" height="100%" overflow="visible" style="display: block;" viewBox="0 0 85.5881 85.5881" fill="none" xmlns="http://www.w3.org/2000/svg">
<g id="Vector (1) 1" clip-path="url(#clip0_0_8)">
<path id="Vector" d="M85.5888 71.7189C85.5888 82.9139 74.2127 85.5878 60.1799 85.5878H17.3858C7.78436 85.5878 0.000762647 79.3784 0.000762647 71.7189L5.35002 56.9587C5.35002 55.6411 3.87286 56.9587 5.35002 56.9587C6.82717 56.9587 5.35002 55.6411 5.35002 56.9587V67.6946C5.35002 74.9413 11.9361 80.8162 20.0605 80.8162H60.1799C71.2585 80.8162 80.2396 72.8052 80.2396 62.9231C80.2396 53.041 71.2585 45.0299 60.1799 45.0299H18.7232C18.7232 46.3476 17.246 45.0299 18.7232 45.0299C18.7232 43.7123 17.246 45.0299 18.7232 45.0299L38.9616 40.2584H60.1799C74.2127 40.2584 85.5888 60.5245 85.5888 71.7189Z" fill="var(--fill-0, white)"/>
<path id="Vector_2" d="M0.000762647 71.7223C0.000762647 82.9172 11.3768 85.5911 25.4097 85.5911H68.2038C77.8053 85.5911 85.5888 79.3817 85.5888 71.7223L80.2396 56.8872C81.7167 56.8872 80.2396 55.5662 80.2396 56.8872C80.2396 55.5662 78.7625 56.8872 80.2396 56.8872V67.6512C80.2396 74.9168 73.6536 80.8074 65.5291 80.8074H25.4097C14.3311 80.8074 5.35002 72.775 5.35002 62.8672C5.35002 52.9593 14.3311 44.9273 25.4097 44.9273H66.8664C68.3436 44.9273 66.8664 46.2484 66.8664 44.9273C68.3436 44.9273 66.8664 43.6062 66.8664 44.9273L56.6137 42.5353L46.361 40.4363H25.4097C11.3768 40.4363 0.000762647 60.5278 0.000762647 71.7223Z" fill="var(--fill-0, white)"/>
<path id="Vector_3" d="M0.000801534 13.6795C0.000801534 2.63899 11.3768 0.00172299 25.4098 0.00172299H68.2038C77.8053 0.00172299 85.5889 6.12545 85.5889 13.6795L80.2396 28.5428C81.7167 28.5428 80.2396 29.8564 80.2396 28.5428C80.2396 29.8564 78.7625 28.5428 80.2396 28.5428V17.8399C80.2396 10.6153 73.6536 4.75857 65.5292 4.75857H25.4098C14.3311 4.75857 5.35006 12.745 5.35006 22.5968C5.35006 32.4485 14.3311 40.435 25.4098 40.435H66.8665C68.3437 40.435 66.8665 39.1214 66.8665 40.435C68.3437 40.435 66.8665 41.7485 66.8665 40.435L46.361 44.6903L25.4098 44.926C11.3768 44.926 0.000801534 24.7199 0.000801534 13.6795Z" fill="var(--fill-0, white)"/>
<path id="Vector_4" d="M85.5889 13.6795C85.5889 2.63899 74.2128 0.00172299 60.1799 0.00172299H17.3859C7.78439 0.00172299 0.000801534 6.12545 0.000801534 13.6795L5.35006 28.3976C5.35006 29.7045 3.8729 28.3976 5.35006 28.3976C6.82721 28.3976 5.35006 29.7045 5.35006 28.3976V17.7492C5.35006 10.5613 11.9361 4.73438 20.0605 4.73438H60.1799C71.2586 4.73438 80.2396 12.6802 80.2396 22.4819C80.2396 32.2835 71.2586 40.2293 60.1799 40.2293H18.7232C18.7232 38.9224 17.246 40.2293 18.7232 40.2293C18.7232 41.5362 17.246 40.2293 18.7232 40.2293L39.2678 44.9619H60.1799C74.2128 44.9619 85.5889 24.7199 85.5889 13.6795Z" fill="var(--fill-0, white)"/>
</g>
<defs>
<clipPath id="clip0_0_8">
<rect width="85.5881" height="85.5881" fill="white"/>
</clipPath>
</defs>
</svg>
