<svg preserveAspectRatio="none" width="100%" height="100%" overflow="visible" style="display: block;" viewBox="0 0 427.032 85.5628" fill="none" xmlns="http://www.w3.org/2000/svg">
<g id="Answers">
<path d="M1.6047 85.5628C0.534902 85.5628 0 85.0279 0 83.9581V24.4557C0 23.8994 0.213961 23.2575 0.641882 22.5301L15.8545 0.962822C16.3252 0.320941 17.0099 0 17.9085 0H39.1548C40.0962 0 40.7809 0.320941 41.2088 0.962822L56.4856 22.5301C56.9135 23.1291 57.1275 23.771 57.1275 24.4557V83.9581C57.1275 85.0279 56.5926 85.5628 55.5228 85.5628H37.3575C36.2877 85.5628 35.7528 85.0279 35.7528 83.9581V59.531C35.7528 57.9554 34.4756 56.6782 32.9 56.6782H24.2917C22.7161 56.6782 21.4389 57.9554 21.4389 59.531V83.9581C21.4389 85.0279 20.9039 85.5628 19.8341 85.5628H1.6047ZM28.5637 42.8777C32.5006 42.8777 35.1537 42.0219 36.5231 40.3102C37.9352 38.5557 38.6413 35.2393 38.6413 30.361C38.6413 25.4827 37.9352 22.1877 36.5231 20.476C35.1537 18.7216 32.5006 17.8443 28.5637 17.8443C24.6697 17.8443 22.0165 18.7216 20.6044 20.476C19.2351 22.1877 18.5504 25.4827 18.5504 30.361C18.5504 35.2393 19.2351 38.5557 20.6044 40.3102C22.0165 42.0219 24.6697 42.8777 28.5637 42.8777Z" fill="var(--fill-0, #5C5C5C)"/>
<path d="M73.7642 85.5628C72.6944 85.5628 72.1595 85.0279 72.1595 83.9581V16.5605C72.1595 15.4907 72.6944 14.9558 73.7642 14.9558H108.105C109.089 14.9558 109.945 15.3196 110.672 16.047L123.51 28.8847C124.238 29.5694 124.601 30.4252 124.601 31.4522V83.9581C124.601 85.0279 124.066 85.5628 122.997 85.5628H105.858C104.789 85.5628 104.254 85.0279 104.254 83.9581V34.0197C104.254 32.0085 103.248 31.0029 101.237 31.0029H95.36C93.7844 31.0029 92.5072 32.2801 92.5072 33.8557V83.9581C92.5072 85.0279 91.9723 85.5628 90.9025 85.5628H73.7642Z" fill="var(--fill-0, #5C5C5C)"/>
<path d="M139.222 85.5628C138.152 85.5628 137.617 85.0279 137.617 83.9581V73.5596C137.617 72.5754 137.938 71.9336 138.58 71.634L150.277 64.6961C151.144 64.1823 151.675 63.2497 151.675 62.2425V58.8945C151.675 57.8456 151.099 56.8813 150.176 56.3835L138.58 50.131C137.938 49.7458 137.617 49.0826 137.617 48.1411V27.6651C137.617 27.1944 137.682 26.8093 137.81 26.5097C137.981 26.2102 138.217 25.9534 138.516 25.7395L152.188 15.7261C152.659 15.3838 153.044 15.1698 153.344 15.0842C153.643 14.9986 153.943 14.9558 154.242 14.9558H169.84C170.91 14.9558 171.445 15.4907 171.445 16.5605V26.6381C171.445 27.3656 171.38 27.8577 171.252 28.1144C171.166 28.3712 170.952 28.5851 170.61 28.7563L159.977 34.4951C159.054 34.9931 158.479 35.9571 158.479 37.0056V40.9784C158.479 42.063 159.094 43.0538 160.066 43.535L171.445 49.1681C172.172 49.4677 172.536 50.1096 172.536 51.0938V70.7996C172.536 71.8694 172.172 72.7252 171.445 73.3671L157.773 84.7284C157.088 85.2847 156.232 85.5628 155.205 85.5628H139.222Z" fill="var(--fill-0, #5C5C5C)"/>
<path d="M202.04 85.5628C201.056 85.5628 200.2 85.1991 199.473 84.4716L186.635 71.634C185.908 70.9493 185.544 70.0935 185.544 69.0665V16.5605C185.544 15.4907 186.079 14.9558 187.149 14.9558H204.287C205.357 14.9558 205.892 15.4907 205.892 16.5605V66.663C205.892 68.2385 207.169 69.5158 208.744 69.5158H213.758C215.334 69.5158 216.611 68.2385 216.611 66.663V16.5605C216.611 15.4907 217.146 14.9558 218.216 14.9558H235.29C236.36 14.9558 236.894 15.4907 236.894 16.5605V66.663C236.894 68.2385 238.172 69.5158 239.747 69.5158H244.761C246.337 69.5158 247.614 68.2385 247.614 66.663V16.5605C247.614 15.4907 248.149 14.9558 249.219 14.9558H266.357C267.427 14.9558 267.962 15.4907 267.962 16.5605V69.0665C267.962 70.0935 267.598 70.9493 266.87 71.634L254.033 84.4716C253.305 85.1991 252.449 85.5628 251.465 85.5628H236.83C235.803 85.5628 234.947 85.1991 234.263 84.4716L228.823 79.0316C227.716 77.925 225.925 77.9165 224.808 79.0124L219.243 84.4716C218.558 85.1991 217.702 85.5628 216.675 85.5628H202.04Z" fill="var(--fill-0, #5C5C5C)"/>
<path d="M311.659 85.5628C311.231 85.5628 310.76 85.4986 310.247 85.3703C309.776 85.2419 309.326 85.1349 308.899 85.0493L297.473 82.2251L284.379 77.8603C283.095 77.4323 282.453 76.1914 282.453 74.1373V31.4522C282.453 30.4252 282.817 29.5694 283.544 28.8847L296.382 16.047C297.109 15.3196 297.965 14.9558 298.949 14.9558H319.49C320.474 14.9558 321.33 15.3196 322.057 16.047L334.895 28.8847C335.622 29.5694 335.986 30.4252 335.986 31.4522V54.9165C335.986 56.4921 334.709 57.7694 333.133 57.7694H304.224C302.706 57.7694 301.454 58.957 301.375 60.4722L301.182 64.1322C301.114 65.4161 301.914 66.5865 303.134 66.9905L309.504 69.0987C309.954 69.2478 310.422 69.3401 310.895 69.3735L326.55 70.4786C327.278 70.607 327.642 71.0991 327.642 71.9549V83.9581C327.642 85.0279 327.107 85.5628 326.037 85.5628H311.659ZM309.091 47.6918H310.311C312.408 47.6918 314.076 46.9002 315.317 45.3169C316.601 43.7335 317.243 41.5939 317.243 38.898V37.6143C317.243 34.9612 316.601 32.843 315.317 31.2596C314.076 29.6763 312.408 28.8847 310.311 28.8847H309.027C306.973 28.8847 305.325 29.6763 304.084 31.2596C302.886 32.843 302.287 34.9612 302.287 37.6143V38.898C302.287 41.5939 302.886 43.7335 304.084 45.3169C305.325 46.9002 306.994 47.6918 309.091 47.6918Z" fill="var(--fill-0, #5C5C5C)"/>
<path d="M350.952 85.5628C349.882 85.5628 349.347 85.0279 349.347 83.9581V16.5605C349.347 15.4907 349.882 14.9558 350.952 14.9558H360.708C361.521 14.9558 362.228 15.3196 362.827 16.047L367.029 20.8925C368.143 22.177 370.126 22.2081 371.28 20.9591L376.114 15.7261C376.584 15.2126 377.183 14.9558 377.911 14.9558H384.843C385.913 14.9558 386.448 15.4907 386.448 16.5605V30.361C386.448 31.0457 386.405 31.5164 386.32 31.7731C386.234 31.9871 385.999 32.2225 385.613 32.4792L370.854 43.3705C370.125 43.9083 369.695 44.7602 369.695 45.666V83.9581C369.695 85.0279 369.16 85.5628 368.09 85.5628H350.952Z" fill="var(--fill-0, #5C5C5C)"/>
<path d="M393.718 85.5628C392.648 85.5628 392.114 85.0279 392.114 83.9581V73.5596C392.114 72.5754 392.434 71.9336 393.076 71.634L404.773 64.6961C405.64 64.1823 406.171 63.2497 406.171 62.2425V58.8945C406.171 57.8456 405.595 56.8813 404.672 56.3835L393.076 50.131C392.434 49.7458 392.114 49.0826 392.114 48.1411V27.6651C392.114 27.1944 392.178 26.8093 392.306 26.5097C392.477 26.2102 392.713 25.9534 393.012 25.7395L406.684 15.7261C407.155 15.3838 407.54 15.1698 407.84 15.0842C408.139 14.9986 408.439 14.9558 408.738 14.9558H424.336C425.406 14.9558 425.941 15.4907 425.941 16.5605V26.6381C425.941 27.3656 425.877 27.8577 425.748 28.1144C425.663 28.3712 425.449 28.5851 425.106 28.7563L414.473 34.4951C413.55 34.9931 412.975 35.9571 412.975 37.0056V40.9784C412.975 42.063 413.59 43.0538 414.562 43.535L425.941 49.1681C426.668 49.4677 427.032 50.1096 427.032 51.0938V70.7996C427.032 71.8694 426.668 72.7252 425.941 73.3671L412.269 84.7284C411.584 85.2847 410.728 85.5628 409.701 85.5628H393.718Z" fill="var(--fill-0, #5C5C5C)"/>
</g>
</svg>
