<svg preserveAspectRatio="none" width="100%" height="100%" overflow="visible" style="display: block;" viewBox="0 0 24 24" fill="none" xmlns="http://www.w3.org/2000/svg">
<g id="Group">
<path id="Vector" d="M18.375 0H5.625C2.5184 0 0 2.5184 0 5.625V18.375C0 21.4816 2.5184 24 5.625 24H18.375C21.4816 24 24 21.4816 24 18.375V5.625C24 2.5184 21.4816 0 18.375 0Z" fill="var(--fill-0, white)"/>
<path id="Vector_2" d="M3.90338 19.0349H6.88631V11.7906L2.625 8.59463V17.7565C2.625 18.4639 3.19819 19.0349 3.90338 19.0349Z" fill="var(--fill-0, #4285F4)"/>
<path id="Vector_3" d="M17.1136 19.0349H20.0966C20.804 19.0349 21.375 18.4617 21.375 17.7565V8.59453L17.1136 11.7906" fill="var(--fill-0, #34A853)"/>
<path id="Vector_4" d="M17.1136 6.25078V11.7906L21.375 8.59463V6.88987C21.375 5.30897 19.5703 4.40766 18.3068 5.35584" fill="var(--fill-0, #FBBC04)"/>
<path id="Vector_5" d="M6.88641 11.7906V6.25087L12 10.0859L17.1136 6.25069V11.7905L12 15.6258" fill="var(--fill-0, #EA4335)"/>
<path id="Vector_6" d="M2.625 6.88997V8.59453L6.88631 11.7906V6.25088L5.69316 5.35594C4.42753 4.40775 2.625 5.30906 2.625 6.88997Z" fill="var(--fill-0, #C5221F)"/>
</g>
</svg>
