<svg preserveAspectRatio="none" width="100%" height="100%" overflow="visible" style="display: block;" viewBox="0 0 16.4334 15.9312" fill="none" xmlns="http://www.w3.org/2000/svg">
<g id="Group">
<path id="Vector" d="M7.3062 1.14116C7.30628 1.02297 7.32964 0.905957 7.37494 0.796794C7.42024 0.687631 7.4866 0.58846 7.57023 0.504943C7.65386 0.421426 7.75312 0.355199 7.86234 0.310042C7.97156 0.264886 8.08861 0.241684 8.2068 0.241763C8.32499 0.241842 8.44201 0.265199 8.55117 0.310501C8.66033 0.355803 8.7595 0.422163 8.84302 0.505792C8.92654 0.58942 8.99276 0.688679 9.03792 0.797903C9.08308 0.907126 9.10628 1.02417 9.1062 1.14236L7.3062 1.14116ZM8.2056 2.49776H7.3056V2.49716L8.2056 2.49776ZM9.1056 8.51996C9.1056 8.75866 9.01078 8.98758 8.842 9.15636C8.67321 9.32514 8.4443 9.41996 8.2056 9.41996C7.96691 9.41996 7.73799 9.32514 7.5692 9.15636C7.40042 8.98758 7.3056 8.75866 7.3056 8.51996H9.1056ZM7.3056 8.53106C7.3056 8.29237 7.40042 8.06345 7.5692 7.89467C7.73799 7.72588 7.96691 7.63106 8.2056 7.63106C8.4443 7.63106 8.67321 7.72588 8.842 7.89467C9.01078 8.06345 9.1056 8.29237 9.1056 8.53106H7.3056ZM9.1056 15.0312C9.1056 15.2699 9.01078 15.4988 8.842 15.6676C8.67321 15.8363 8.4443 15.9312 8.2056 15.9312C7.96691 15.9312 7.73799 15.8363 7.5692 15.6676C7.40042 15.4988 7.3056 15.2699 7.3056 15.0312H9.1056ZM9.1062 1.14236V1.16486L7.3062 1.16396V1.14116L9.1062 1.14236ZM9.1062 1.16486V1.43186L7.3062 1.43036V1.16396L9.1062 1.16486ZM9.1062 1.43186V1.69826L7.3062 1.69706V1.43036L9.1062 1.43186ZM9.1062 1.69826L9.1059 1.96526L7.3059 1.96376L7.3062 1.69706L9.1062 1.69826ZM9.1059 1.96526L9.1056 2.23166L7.3056 2.23046L7.3059 1.96376L9.1059 1.96526ZM9.1056 2.23166V2.49836L7.3056 2.49716V2.23046L9.1056 2.23166ZM9.1056 2.49776V8.51996H7.3056V2.49776H9.1056ZM9.1056 8.53106V15.0312H7.3056V8.53106H9.1056Z" fill="var(--fill-0, black)"/>
<path id="Vector_2" d="M0.75 7.56416L7.1031 1.21136C7.24935 1.06509 7.42299 0.949066 7.61409 0.869905C7.80518 0.790744 8.01 0.75 8.21685 0.75C8.4237 0.75 8.62852 0.790744 8.81961 0.869905C9.01071 0.949066 9.18435 1.06509 9.3306 1.21136L15.6834 7.56446" stroke="var(--stroke-0, black)" stroke-width="1.5" stroke-linecap="round" stroke-linejoin="round"/>
</g>
</svg>
